<svg id="Layer_1" data-name="Layer 1" xmlns="http://www.w3.org/2000/svg" viewBox="0 0 85.36 99.34"><defs><style>.cls-1,.cls-2,.cls-3{fill:#fff;}.cls-2{stroke:#020202;}.cls-2,.cls-3,.cls-4{stroke-miterlimit:10;}.cls-3{stroke:#000;}.cls-4{font-size:10.53px;fill:#231f20;stroke:#231f20;stroke-width:0.25px;font-family:TimesNewRomanPSMT, Times New Roman;}</style></defs><path class="cls-1" d="M219.12,254.54a62.76,62.76,0,0,1,9.17-36.92" transform="translate(-185.84 -169.17)"/><path class="cls-1" d="M219.12,254.54a62.76,62.76,0,0,1,9.17-36.92" transform="translate(-185.84 -169.17)"/><path class="cls-1" d="M219.12,254.54a62.76,62.76,0,0,1,9.17-36.92" transform="translate(-185.84 -169.17)"/><path class="cls-1" d="M219.12,254.54a62.76,62.76,0,0,1,9.17-36.92" transform="translate(-185.84 -169.17)"/><path class="cls-1" d="M219.12,254.54a62.76,62.76,0,0,1,9.17-36.92" transform="translate(-185.84 -169.17)"/><path class="cls-2" d="M265.82,253.18l4.64-1m-73.25-8.43c.87-.11.87-.09.89-1.26,0-.13,0-.25,0-.51l-7.47.58,0-.2c1-.13,2-.27,3-.38,1.31-.14,2.61-.28,3.92-.38.56-.05.78-.34.79-1.12,0-3.1.07-6.21.18-9.31q.11-3,.39-6a50.63,50.63,0,0,1,.67-5.13,16.79,16.79,0,0,1,1.86-5.69,7.7,7.7,0,0,1,3.48-2.79c1.74-.85,3.5-1.63,5.2-2.6a9.77,9.77,0,0,0,3.92-4.24,11.11,11.11,0,0,0,1-2.83,4.43,4.43,0,0,0-2.14-4.89,26.69,26.69,0,0,1-2.62-1.42,3.69,3.69,0,0,1-1.42-3,19.53,19.53,0,0,1,1.47-8.47,32.07,32.07,0,0,1,4.68-7.84c1.11-1.38,2.24-2.73,3.4-4a7,7,0,0,1,4-2.18,18.85,18.85,0,0,1,10.55.86,23.15,23.15,0,0,1,4.72,2.52,9.72,9.72,0,0,1,4,5.69,13.83,13.83,0,0,1,.25,4.23,13.68,13.68,0,0,1-2.55,7,22.35,22.35,0,0,1-5.79,5.48,9.87,9.87,0,0,0-2.7,2.79,8.34,8.34,0,0,0-1.14,4.92,2.3,2.3,0,0,1,0,.37,4.08,4.08,0,0,0,1.91,4c2.09,1.38,4.19,2.78,6.34,4,2.74,1.56,5.54,3,8.32,4.41a4.29,4.29,0,0,1,2.24,2.47,11.66,11.66,0,0,1,.65,3.22c.21,5,.34,10,.48,14.92,0,1.37.06,2.74,0,4.11,0,.54.13.72.54.78,2.57.37,5.13.78,7.69,1.18.05,0,.09.05.13.19-.94-.14-1.87-.29-2.8-.41-1.64-.22-3.28-.43-4.93-.63-.31-.05-.63-.08-.62.54s-.09,1.13.56,1.2c1.78.17,3.56.37,5.33.6,3.27.43,6.53.89,9.79,1.36a6.84,6.84,0,0,1,1.14.36l0,.21c-.37-.08-.74-.17-1.12-.23-2.05-.3-4.1-.61-6.16-.88-2.89-.37-5.78-.71-8.68-1.05-.34,0-.79-.28-.83.57-.05,1.2.06,1.45.75,1.52,3.37.32,6.74.58,10.1,1,2.15.27,4.28.78,6.42,1.21a2.13,2.13,0,0,1,.85.4,1.12,1.12,0,0,1,.4.69,1.07,1.07,0,0,1-.4.71,3.85,3.85,0,0,1-1.23.55c-1.52.33-3,.7-4.56.88-3.8.45-7.6.8-11.41,1.18a2.67,2.67,0,0,1-1.15-.12c2.36-.24,4.72-.42,7.08-.71,3.17-.4,6.33-.87,9.5-1.34a5.63,5.63,0,0,0,1.47-.56c.2-.09.36-.32.69-.63a4.37,4.37,0,0,0-1.09-.73,42.46,42.46,0,0,0-5.05-1.08c-3.79-.47-7.6-.79-11.41-1.18-.75-.08-.9.07-.77.89a.8.8,0,0,0,.33.49,8.39,8.39,0,0,1,.94.49,1.2,1.2,0,0,1,.44.75,1.23,1.23,0,0,1-.4.86,6.91,6.91,0,0,1-1.9.73c-1.44.26-2.89.4-4.33.6l0-.28a19.91,19.91,0,0,0,2.44-.21c1.17-.24,2.34-.57,3.5-.93.23-.07.4-.45.6-.68a2.19,2.19,0,0,0-1.47-1.15l.06.22c-.34.33-.65.8-1,1-2.7,1.25-5.74.51-8.64-.28,0,0-.66-10.9-1-10.06-.9,2.23.92,9.19-1.52,10.31-5,2.31-30.71,1.51-30.79-2.45-.06-3.16,0-7.35-1.12,0-.11.73-1.28.95-3.84.63-.75-.09-2.95-.92-3.69-1.08-.13,0-.32-.11-.35-.23-.21-.78-.64-.51-1-.4a3,3,0,0,0-2.28,1.34,6.13,6.13,0,0,0,1,.74,10.69,10.69,0,0,0,4.83.7h.62v.21a17.08,17.08,0,0,1-2.58,0,23.82,23.82,0,0,1-3.18-.79,1,1,0,0,1,0-1.86,14.35,14.35,0,0,1,2.1-.61c.54-.1.4-.6.44-1s-.16-.5-.43-.47m60.8,5.16a9.67,9.67,0,0,0-1.43-.49c-.67-.19-1.35-.33-2-.49l0-.26c1.27.34,2.54.67,3.81,1.06a.73.73,0,0,1,0,1.37,13.78,13.78,0,0,1-4.32,1l0-.18c.48-.11,1-.19,1.43-.32.84-.21,1.67-.42,2.5-.68.17-.06.3-.33.45-.49C258.72,249.56,258.59,249.28,258.41,249.2Zm-5.23-.47a4,4,0,0,0-.86-.46l.08-.23a15.22,15.22,0,0,1,1.47.94.74.74,0,0,1,0,1.21,13.53,13.53,0,0,1-1.77,1L252,251a7.44,7.44,0,0,0,1.18-.55,4.15,4.15,0,0,0,.68-.8A5.55,5.55,0,0,0,253.18,248.73Zm-60.71-1.83a1.22,1.22,0,0,0,.73,1.59c.69.33,1.4.6,2.16.93a4.48,4.48,0,0,1-3-1.08Q191.74,247.76,192.47,246.9Zm-6.13,1.38a1.05,1.05,0,0,1,.35-.65,2.13,2.13,0,0,1,1-.52,1.7,1.7,0,0,1-.15.22c-.62.72-.59,1.22.23,1.54a40,40,0,0,0,3.93,1.16c.67.18,1.35.26,2,.38-2.39,0-4.77-.15-7-1.52A.91.91,0,0,1,186.34,248.28Zm14,5-10-.61v-.27l10,.72Zm4.39-.86-2.53-.71,0-.19,2.53.63Zm3.53-.46-2.22-.54,0-.2,2.22.54Zm26.83,1.28v-.14l4.36-.49,0,.27Zm-32.55-4.69c6.14,1.46,12.23,3.3,18.53,3.38a149.85,149.85,0,0,0,18.7-.92C227.24,252.8,214.79,253.05,202.51,248.57Z" transform="translate(-185.84 -169.17)"/><path class="cls-3" d="M270.7,252.46a11.57,11.57,0,0,1-4.64.72l4.64-1Z" transform="translate(-185.84 -169.17)"/><path class="cls-3" d="M240,251c-12.5,1.77-24.95,2-37.23-2.46,6.14,1.46,12.23,3.3,18.53,3.38A149.85,149.85,0,0,0,240,251Z" transform="translate(-185.84 -169.17)"/><path class="cls-3" d="M194,250.41c-2.39,0-4.78-.15-7-1.52a.91.91,0,0,1-.4-.61,1.05,1.05,0,0,1,.35-.65,2.13,2.13,0,0,1,1-.52,1.7,1.7,0,0,1-.15.22c-.62.72-.59,1.22.23,1.54A40,40,0,0,0,192,250C192.62,250.21,193.3,250.29,194,250.41Z" transform="translate(-185.84 -169.17)"/><path class="cls-3" d="M255.23,248c1.27.34,2.54.67,3.81,1.06a.73.73,0,0,1,0,1.37,13.78,13.78,0,0,1-4.32,1l0-.18c.48-.11,1-.19,1.43-.32.84-.21,1.67-.42,2.5-.68.17-.06.3-.33.45-.49-.15-.2-.28-.48-.46-.56a9.67,9.67,0,0,0-1.43-.49c-.67-.19-1.35-.33-2-.49Z" transform="translate(-185.84 -169.17)"/><path class="cls-3" d="M190.59,252.42l10,.72v.16l-10-.61Z" transform="translate(-185.84 -169.17)"/><path class="cls-3" d="M192.71,246.9a1.22,1.22,0,0,0,.73,1.59c.69.33,1.4.6,2.16.93a4.46,4.46,0,0,1-2.95-1.08Q192,247.76,192.71,246.9Z" transform="translate(-185.84 -169.17)"/><path class="cls-3" d="M252.64,248a15.22,15.22,0,0,1,1.47.94.74.74,0,0,1,0,1.21,13.53,13.53,0,0,1-1.77,1l-.07-.25a7.44,7.44,0,0,0,1.18-.55,4.15,4.15,0,0,0,.68-.8,5.55,5.55,0,0,0-.68-.88,4,4,0,0,0-.86-.46Z" transform="translate(-185.84 -169.17)"/><path class="cls-3" d="M239.68,252.9l-4.38.36v-.14l4.36-.49Z" transform="translate(-185.84 -169.17)"/><path class="cls-3" d="M204.94,252.44l-2.53-.71,0-.19,2.53.63Z" transform="translate(-185.84 -169.17)"/><path class="cls-3" d="M206.28,251.24l2.22.54,0,.2-2.22-.54Z" transform="translate(-185.84 -169.17)"/><path class="cls-3" d="M219.54,177c0,1.36-1.45,3.18-2.5,3.15-.53,0-.79-.48-.63-1.25.22-1.12,1.29-2.61,2.28-2.81C219.26,176,219.55,176.26,219.54,177Z" transform="translate(-185.84 -169.17)"/><path class="cls-3" d="M253.93,168.56" transform="translate(-185.84 -169.17)"/><path class="cls-3" d="M252.54,167.54" transform="translate(-185.84 -169.17)"/><path class="cls-3" d="M219.17,174.33a1,1,0,0,1,.53-.2,15.21,15.21,0,0,1,2.33.15" transform="translate(-185.84 -169.17)"/><path class="cls-3" d="M225.32,175.93a1,1,0,0,1,.5.27,14.09,14.09,0,0,1,1.41,1.81" transform="translate(-185.84 -169.17)"/><path class="cls-3" d="M228.17,184.69" transform="translate(-185.84 -169.17)"/><path class="cls-3" d="M230.67,181.55" transform="translate(-185.84 -169.17)"/><path class="cls-3" d="M224.36,179.45c0,1.36-1.45,3.19-2.5,3.15-.53,0-.79-.48-.64-1.25.22-1.12,1.3-2.61,2.29-2.81C224.08,178.43,224.36,178.75,224.36,179.45Z" transform="translate(-185.84 -169.17)"/><text class="cls-4" transform="translate(4.35 95.99) scale(1.06 1)">NG Photography</text></svg>